<?xml version="1.0" encoding="UTF-8" standalone="no"?>
<svg
   xmlns:dc="http://purl.org/dc/elements/1.1/"
   xmlns:cc="http://creativecommons.org/ns#"
   xmlns:rdf="http://www.w3.org/1999/02/22-rdf-syntax-ns#"
   xmlns:svg="http://www.w3.org/2000/svg"
   xmlns="http://www.w3.org/2000/svg"
   xmlns:sodipodi="http://sodipodi.sourceforge.net/DTD/sodipodi-0.dtd"
   xmlns:inkscape="http://www.inkscape.org/namespaces/inkscape"
   width="793.70081"
   height="1122.5197"
   viewBox="0 0 210 297"
   version="1.1"
   id="svg8"
   inkscape:version="1.0 (4035a4fb49, 2020-05-01)"
   sodipodi:docname="benjos_muffins.svg">
  <defs
     id="defs2" />
  <sodipodi:namedview
     inkscape:snap-bbox="true"
     inkscape:snap-intersection-paths="true"
     inkscape:snap-midpoints="true"
     id="base"
     pagecolor="#ffffff"
     bordercolor="#666666"
     borderopacity="1.0"
     inkscape:pageopacity="0.0"
     inkscape:pageshadow="2"
     inkscape:zoom="1"
     inkscape:cx="357.67394"
     inkscape:cy="79.741554"
     inkscape:document-units="mm"
     inkscape:current-layer="g215"
     inkscape:document-rotation="0"
     showgrid="false"
     showborder="false"
     units="px"
     inkscape:snap-global="false"
     inkscape:window-width="1920"
     inkscape:window-height="1017"
     inkscape:window-x="-8"
     inkscape:window-y="-8"
     inkscape:window-maximized="1" />
  <metadata
     id="metadata5">
    <rdf:RDF>
      <cc:Work
         rdf:about="">
        <dc:format>image/svg+xml</dc:format>
        <dc:type
           rdf:resource="http://purl.org/dc/dcmitype/StillImage" />
        <dc:title />
      </cc:Work>
    </rdf:RDF>
  </metadata>
  <g
     style="display:inline"
     inkscape:label="Plast 1"
     inkscape:groupmode="layer"
     id="layer1">
    <g
       id="g215">
      <circle
         inkscape:export-ydpi="96"
         inkscape:export-xdpi="96"
         style="fill:#d40000;stroke:none;stroke-width:0.192666"
         id="path193"
         cx="128.717"
         cy="32.927605"
         r="81.196472" />
      <path
         inkscape:export-ydpi="96"
         inkscape:export-xdpi="96"
         id="circle200"
         style="fill:#ff5555;stroke:none;stroke-width:0.728186"
         d="M 792.64453 103.31641 C 742.46963 118.10102 680.80465 111.23192 621 114 C 521.81484 118.59081 547.19248 190.77065 522 259 C 496.80752 327.22935 404.17078 299.28594 313 256 C 273.82161 237.39894 240.19436 243.72968 214.28125 266.1582 A 306.8843 306.8843 0 0 0 486.49023 431.33594 A 306.8843 306.8843 0 0 0 793.37305 124.45117 A 306.8843 306.8843 0 0 0 792.64453 103.31641 z "
         transform="scale(0.26458333)" />
      <path
         inkscape:export-ydpi="96"
         inkscape:export-xdpi="96"
         id="circle208"
         style="fill:#ff2a2a;stroke:none;stroke-width:0.728186"
         d="M 486.13867 -182.43359 A 306.8843 306.8843 0 0 0 179.67969 117.74805 C 191.30406 112.24152 204.98082 109.89841 221.29492 111.89453 C 377.19811 141.38527 602.12096 129.67283 606.45508 26.423828 C 609.06202 -35.679797 647.14549 -72.077426 693.30273 -102.27734 A 306.8843 306.8843 0 0 0 486.49023 -182.43359 A 306.8843 306.8843 0 0 0 486.13867 -182.43359 z "
         transform="scale(0.26458333)" />
    </g>
    <path
       inkscape:export-ydpi="96"
       inkscape:export-xdpi="96"
       id="path191"
       style="fill:#ffffff;stroke-width:0.332983"
       d="M 129.11667,-28.442708 C 111.95131,-28.327401 93.838999,-19.710935 82.958851,5.370346 77.771824,19.070931 59.85789,27.751283 65.399437,35.868156 77.083216,50.286 100.63735,56.866193 129.11667,56.75303 157.59598,56.866193 181.15012,50.286 192.83389,35.868156 198.37544,27.751283 180.46151,19.070932 175.27448,5.370346 164.39433,-19.710935 146.28202,-28.327401 129.11667,-28.442708 Z" />
    <path
       inkscape:export-ydpi="96"
       inkscape:export-xdpi="96"
       id="path189"
       style="fill:#ffffff;fill-rule:evenodd;stroke-width:0.261029"
       d="m 77.343599,32.54375 c 5.54322,15.164962 11.968082,28.199699 15.113752,49.157076 6.829191,4.416095 21.028899,7.572104 36.659319,7.415823 15.63042,0.156281 29.83012,-2.999726 36.65931,-7.415823 3.14567,-20.957377 9.57054,-33.992114 15.11375,-49.157076 -16.43825,5.832346 -33.62044,9.703954 -51.77306,11.01793 C 110.96405,42.247704 93.781852,38.376096 77.343599,32.54375 Z" />
    <path
       inkscape:export-ydpi="96"
       inkscape:export-xdpi="96"
       d="m 81.841516,32.54375 c 5.061638,14.13666 10.928324,26.287541 13.800706,45.823845 6.235888,4.116649 19.201958,7.058657 33.474448,6.912973 14.27249,0.145684 27.23855,-2.796322 33.47444,-6.912973 2.87238,-19.536304 8.73907,-31.687185 13.8007,-45.823845 -15.01013,5.436868 -30.69958,9.045951 -47.27514,10.270829 C 112.5411,41.589701 96.851654,37.980618 81.841516,32.54375 Z"
       style="fill:#000000;fill-rule:evenodd;stroke-width:0.240828"
       id="rect10" />
    <path
       inkscape:export-ydpi="96"
       inkscape:export-xdpi="96"
       d="m 86.518749,32.54375 c 4.560861,13.562046 9.847217,25.218955 12.435416,43.961165 5.618935,3.94932 17.302075,6.771833 30.162505,6.632072 12.86042,0.139761 24.54356,-2.682752 30.16249,-6.632072 2.5882,-18.74221 7.87456,-30.399119 12.43542,-43.961165 -13.5251,5.215876 -27.66228,8.678273 -42.59791,9.853364 -14.93564,-1.175091 -29.07283,-4.637488 -42.597921,-9.853364 z"
       style="fill:#ffaaaa;fill-rule:evenodd;stroke-width:0.223909"
       id="path26" />
    <path
       inkscape:export-ydpi="96"
       inkscape:export-xdpi="96"
       transform="scale(0.26458333)"
       d="M 488,-97 C 427.89353,-96.592616 364.47115,-66.150295 326.37305,22.462891 308.21007,70.867614 245.48235,101.53565 264.88672,130.21289 305.79883,181.15172 388.27637,204.39981 488,204 587.72363,204.39981 670.20118,181.15172 711.11328,130.21289 730.51764,101.53565 667.78993,70.867615 649.62695,22.462891 611.52886,-66.150294 548.10647,-96.592616 488,-97 Z"
       style="fill:#000000;stroke-width:1.1712"
       id="rect13" />
    <path
       inkscape:export-ydpi="96"
       inkscape:export-xdpi="96"
       transform="scale(0.26458333)"
       d="M 488,-82.857422 C 433.51554,-82.488317 376.02682,-54.907624 341.49219,25.378906 325.02807,69.235214 268.16451,97.023312 285.75391,123.00586 322.83934,169.15815 397.60394,190.21966 488,189.85742 578.39606,190.21965 653.16065,169.15815 690.24609,123.00586 707.83549,97.023312 650.97193,69.235215 634.50781,25.378906 599.97317,-54.907623 542.48446,-82.488317 488,-82.857422 Z"
       style="fill:#c87137;stroke-width:1.0614"
       id="path18" />
    <path
       inkscape:export-ydpi="96"
       inkscape:export-xdpi="96"
       d="m 129.11667,51.721245 c -2.83311,6.8211 -2.51154,19.708272 0,27.534203 2.51153,-7.825931 2.8331,-20.713103 0,-27.534203 z"
       style="display:inline;fill:#000000;stroke:none;stroke-width:0.223909px;stroke-linecap:butt;stroke-linejoin:miter;stroke-opacity:1"
       id="path11" />
    <path
       inkscape:export-ydpi="96"
       inkscape:export-xdpi="96"
       d="m 114.2428,50.915047 c -2.04142,6.964678 -0.24328,19.789414 3.1571,27.44121 1.60573,-7.947204 0.44855,-20.809764 -3.1571,-27.44121 z"
       style="display:inline;fill:#000000;stroke:none;stroke-width:0.223909px;stroke-linecap:butt;stroke-linejoin:miter;stroke-opacity:1"
       id="path19" />
    <path
       inkscape:export-ydpi="96"
       inkscape:export-xdpi="96"
       id="path24"
       style="display:inline;fill:#000000;stroke:none;stroke-width:0.223909px;stroke-linecap:butt;stroke-linejoin:miter;stroke-opacity:1"
       d="m 99.504213,48.696627 c -1.40349,7.045134 1.557517,19.758721 5.646777,27.235598 0.87934,-8.005243 -1.44551,-20.786479 -5.646777,-27.235598 z" />
    <path
       inkscape:export-ydpi="96"
       inkscape:export-xdpi="96"
       id="path119"
       style="display:inline;fill:#000000;stroke:none;stroke-width:0.223909px;stroke-linecap:butt;stroke-linejoin:miter;stroke-opacity:1"
       d="m 143.99052,50.915002 c 2.04142,6.964678 0.24328,19.789414 -3.1571,27.44121 -1.60573,-7.947204 -0.44855,-20.809764 3.1571,-27.44121 z" />
    <path
       inkscape:export-ydpi="96"
       inkscape:export-xdpi="96"
       d="m 158.72911,48.696582 c 1.40349,7.045134 -1.55752,19.758721 -5.64678,27.235598 -0.87934,-8.005243 1.44551,-20.786479 5.64678,-27.235598 z"
       style="display:inline;fill:#000000;stroke:none;stroke-width:0.223909px;stroke-linecap:butt;stroke-linejoin:miter;stroke-opacity:1"
       id="path121" />
  </g>
  <g
     style="display:inline"
     inkscape:label="Plast 2"
     id="layer2"
     inkscape:groupmode="layer">
    <g
       inkscape:export-ydpi="96"
       inkscape:export-xdpi="96"
       transform="translate(161.13124,-22.225)"
       id="g145">
      <path
         id="path135"
         style="fill:#000000;stroke:none;stroke-width:0.999999"
         d="m -173.08203,159.80664 a 34.294678,34.294678 0 0 0 -3.53711,0.20508 c -20.97673,1.66023 -23.20952,11.78196 -39.04883,25.60351 -15.11765,13.68381 -29.81677,7.54294 -32.52734,-22.62695 -13.58848,26.81178 -8.81803,75.92215 33.58789,67.88281 26.57722,-5.92228 28.71983,-2.24921 41.7207,-2.47656 a 34.294678,34.294678 0 0 0 34.29297,-34.29297 34.294678,34.294678 0 0 0 -34.29297,-34.29492 34.294678,34.294678 0 0 0 -0.19531,0 z"
         transform="scale(0.26458333)" />
      <path
         d="m -36.639754,42.282173 a 9.0738001,9.0738001 0 0 1 0.935861,0.05426 c 5.550093,0.439269 6.140852,3.11731 10.331669,6.774262 3.999878,3.620508 7.889021,1.995736 8.606192,-5.986714 3.595285,7.09395 2.333104,20.087735 -8.886796,17.96066 -7.031889,-1.566937 -7.598788,-0.595104 -11.038601,-0.655257 a 9.0738001,9.0738001 0 0 1 -9.073349,-9.073348 9.0738001,9.0738001 0 0 1 9.073349,-9.073864 9.0738001,9.0738001 0 0 1 0.05168,0 z"
         style="fill:#000000;stroke:none;stroke-width:0.264583"
         id="path141" />
    </g>
    <g
       inkscape:export-ydpi="96"
       inkscape:export-xdpi="96"
       transform="translate(0.02472897)"
       id="g177">
      <g
         id="g162">
        <circle
           r="9.921875"
           cy="15.08125"
           cx="110.72813"
           id="path147"
           style="fill:#000000;stroke:none;stroke-width:0.264583" />
        <circle
           style="fill:#ffffff;stroke:none;stroke-width:0.194028"
           id="circle149"
           cx="110.72813"
           cy="15.08125"
           r="7.2760415" />
        <circle
           r="4.8438888"
           cy="15.034478"
           cx="106.84604"
           id="circle151"
           style="fill:#000000;stroke:none;stroke-width:0.129171" />
      </g>
      <g
         id="g167">
        <circle
           style="fill:#000000;stroke:none;stroke-width:0.264583"
           id="circle153"
           cx="129.05052"
           cy="15.08125"
           r="9.921875" />
        <circle
           r="7.2760415"
           cy="15.08125"
           cx="129.05052"
           id="circle155"
           style="fill:#ffffff;stroke:none;stroke-width:0.194028" />
        <circle
           style="fill:#000000;stroke:none;stroke-width:0.129171"
           id="circle157"
           cx="125.16843"
           cy="15.034478"
           r="4.8438888" />
      </g>
    </g>
    <g
       inkscape:export-ydpi="96"
       inkscape:export-xdpi="96"
       transform="translate(0.30806265)"
       id="g185">
      <path
         style="fill:#000000;stroke:none;stroke-width:0.394259px;stroke-linecap:butt;stroke-linejoin:miter;stroke-opacity:1"
         d="m 95.140411,0.46256198 c 3.817156,-3.98451868 9.300149,-4.36400148 16.351389,1.92983712 5.23339,3.9975223 5.86377,2.8172317 7.59011,1.1578298 0.71534,2.0254406 -2.27084,7.0429911 -5.65491,4.0114256 -6.25772,-6.1657378 -12.19808,-9.2449461 -18.286589,-7.09909252 z"
         id="path179"
         sodipodi:nodetypes="ccccc" />
      <path
         sodipodi:nodetypes="ccccc"
         id="path181"
         d="m 144.07157,0.46256198 c -3.81715,-3.98451868 -9.30014,-4.36400148 -16.35138,1.92983712 -5.23339,3.9975223 -5.86377,2.8172317 -7.59011,1.1578298 -0.71534,2.0254406 2.27084,7.0429911 5.65491,4.0114256 6.25772,-6.1657378 12.19808,-9.2449461 18.28658,-7.09909252 z"
         style="fill:#000000;stroke:none;stroke-width:0.394259px;stroke-linecap:butt;stroke-linejoin:miter;stroke-opacity:1" />
    </g>
  </g>
</svg>
