<?xml version="1.0" encoding="UTF-8" standalone="no"?>
<!-- Created with Inkscape (http://www.inkscape.org/) -->

<svg
   width="60.966805mm"
   height="60.966824mm"
   viewBox="0 0 60.966805 60.966824"
   version="1.1"
   id="svg1"
   xml:space="preserve"
   xmlns="http://www.w3.org/2000/svg"
   xmlns:svg="http://www.w3.org/2000/svg"><defs
     id="defs1" /><g
     id="layer1"><path
       id="rect7"
       style="fill:#39dc9e;fill-opacity:1;stroke-width:0.0629999"
       d="m 28.345557,0 c -5.093101,0 -9.193238,4.100136 -9.193238,9.193237 v 22.730917 0.69763 c 0,0.0217 -1.49e-4,0.04341 0,0.06511 v 4.91753 c 0,2.32576 -1.867404,4.1994 -4.190442,4.21059 -0.0069,-3e-5 -0.01375,0 -0.02067,0 H 12.213725 4.210596 C 1.877855,41.815014 0,43.692874 0,46.025614 v 10.73061 c 0,2.33274 1.877855,4.2106 4.210596,4.2106 h 10.730611 c 2.332741,0 4.211112,-1.87786 4.211112,-4.2106 l -0.0057,-10.73061 c 0,-0.44055 0.0027,-0.74329 0,-1.26349 0.534164,-1.71166 1.941165,-2.94711 3.833358,-2.94711 h 4.552176 v -0.03514 c 0.267884,0.0233 0.539267,0.03514 0.813388,0.03514 h 23.428023 c 5.0931,0 9.19324,-4.10012 9.19324,-9.19323 V 9.193237 C 60.966804,4.100136 56.866664,0 51.773564,0 Z m 1.505334,2.686658 H 50.26825 c 4.4386,0 8.01191,3.573312 8.01191,8.011914 v 20.417872 c 0,4.4386 -3.57331,8.01192 -8.01191,8.01192 H 29.850891 c -4.438601,0 -8.011914,-3.57332 -8.011914,-8.01192 V 10.698572 c 0,-4.438602 3.573313,-8.011914 8.011914,-8.011914 z M 5.722648,44.513044 h 7.707023 c 1.675512,0 3.024622,1.3486 3.024622,3.02411 v 7.70754 c 0,1.67551 -1.34911,3.0241 -3.024622,3.0241 H 5.722648 c -1.675512,0 -3.024622,-1.34859 -3.024622,-3.0241 v -7.70754 c 0,-1.67551 1.34911,-3.02411 3.024622,-3.02411 z" /></g></svg>
