<?xml version="1.0" encoding="UTF-8" standalone="no"?>
<!-- Created with Inkscape (http://www.inkscape.org/) -->

<svg
   width="44.219517mm"
   height="44.219009mm"
   viewBox="0 0 44.219517 44.219009"
   version="1.1"
   id="svg1"
   xmlns="http://www.w3.org/2000/svg"
   xmlns:svg="http://www.w3.org/2000/svg">
  <defs
     id="defs1" />
  <g
     id="layer1"
     transform="translate(-77.78172,-18.008473)">
    <path
       id="path3"
       style="fill:#005741;fill-opacity:1;stroke-width:0.0629999"
       d="M 99.891487,18.008472 A 22.109646,22.109646 0 0 0 77.781725,40.117722 22.109646,22.109646 0 0 0 99.891487,62.227481 22.109646,22.109646 0 0 0 122.00125,40.117722 22.109646,22.109646 0 0 0 99.891487,18.008472 Z m -0.655774,8.1902 c 0.72652,-0.0039 1.451377,0.27057 2.005047,0.82424 1.10734,1.10734 1.09814,2.90006 -0.0212,4.01939 l -6.249233,6.24923 h 15.785083 c 2.20039,0 3.97237,1.26067 3.97237,2.8267 0,1.566 -1.77198,2.82671 -3.97237,2.8267 H 94.97034 l 6.24923,6.249239 c 1.11935,1.11932 1.12853,2.91206 0.0212,4.01939 -1.10734,1.10746 -2.900062,1.09762 -4.019392,-0.0217 L 86.168293,42.138782 c -0.0036,-0.0029 -0.0073,-0.0069 -0.01085,-0.01085 -0.0036,-0.0029 -0.0073,-0.0069 -0.01085,-0.01085 -0.05884,-0.05884 -0.114375,-0.11992 -0.166915,-0.18242 -0.577329,-0.4906 -0.924494,-1.12403 -0.924491,-1.81694 -4e-6,-0.6929 0.347187,-1.32532 0.924491,-1.81591 0.05247,-0.06245 0.108166,-0.1236 0.166915,-0.18242 0.0038,-0.0039 0.0077,-0.0069 0.01137,-0.01085 0.0036,-0.0029 0.0067,-0.0069 0.01034,-0.01086 l 11.053072,-11.05358 c 0.559667,-0.55965 1.287827,-0.84155 2.014348,-0.84543 z" />
  </g>
</svg>
