<?xml version="1.0" encoding="UTF-8" standalone="no"?>
<!-- Created with Inkscape (http://www.inkscape.org/) -->

<svg
   width="44.219517mm"
   height="44.219009mm"
   viewBox="0 0 44.219517 44.219009"
   version="1.1"
   id="svg1"
   xmlns="http://www.w3.org/2000/svg"
   xmlns:svg="http://www.w3.org/2000/svg">
  <defs
     id="defs1" />
  <g
     id="layer1"
     transform="translate(-19.837223,-18.008473)">
    <path
       id="path5"
       style="fill:#005741;fill-opacity:1;stroke-width:0.0629999"
       d="m 41.946983,18.008472 a 22.109646,22.109646 0 0 1 22.109762,22.10925 22.109646,22.109646 0 0 1 -22.109762,22.109759 22.109646,22.109646 0 0 1 -22.10976,-22.109759 22.109646,22.109646 0 0 1 22.10976,-22.10925 z m 0.655774,8.1902 c -0.72652,-0.0039 -1.451376,0.27057 -2.005045,0.82424 -1.107346,1.10734 -1.098146,2.90006 0.02119,4.01939 l 6.249231,6.24923 H 31.08305 c -2.200389,0 -3.972369,1.26067 -3.972367,2.8267 -3e-6,1.566 1.771979,2.82671 3.972367,2.8267 h 15.78508 l -6.249231,6.249239 c -1.119345,1.11932 -1.128529,2.91206 -0.02119,4.01939 1.107342,1.10746 2.900063,1.09762 4.019393,-0.0217 L 55.670177,42.138782 c 0.0036,-0.0029 0.0073,-0.0069 0.01085,-0.01085 0.0036,-0.0029 0.0073,-0.0069 0.01085,-0.01085 0.05884,-0.05884 0.114375,-0.11992 0.166915,-0.18242 0.577329,-0.4906 0.924494,-1.12403 0.924491,-1.81694 4e-6,-0.6929 -0.347187,-1.32532 -0.924491,-1.81591 -0.05247,-0.06245 -0.108166,-0.1236 -0.166915,-0.18242 -0.0038,-0.0039 -0.0077,-0.0069 -0.01137,-0.01085 -0.0036,-0.0029 -0.0067,-0.0069 -0.01034,-0.01086 L 44.617095,27.044102 c -0.559667,-0.55965 -1.287827,-0.84155 -2.014348,-0.84543 z" />
  </g>
</svg>
